<?xml version="1.0" encoding="UTF-8" standalone="no"?>
<!-- Created with Inkscape (http://www.inkscape.org/) -->

<svg
   xmlns:dc="http://purl.org/dc/elements/1.1/"
   xmlns:cc="http://creativecommons.org/ns#"
   xmlns:rdf="http://www.w3.org/1999/02/22-rdf-syntax-ns#"
   xmlns:svg="http://www.w3.org/2000/svg"
   xmlns="http://www.w3.org/2000/svg"
   xmlns:xlink="http://www.w3.org/1999/xlink"
   xmlns:sodipodi="http://sodipodi.sourceforge.net/DTD/sodipodi-0.dtd"
   xmlns:inkscape="http://www.inkscape.org/namespaces/inkscape"
   width="256"
   height="256"
   id="svg8991"
   version="1.1"
   inkscape:version="0.48.4 r9939"
   sodipodi:docname="title_logo.svg">
  <defs
     id="defs8993">
    <filter
       id="filter8603-5"
       inkscape:menu-tooltip="Pressed metal with a rolled edge"
       inkscape:menu="Bevels"
       inkscape:label="Pressed steel"
       color-interpolation-filters="sRGB">
      <feGaussianBlur
         id="feGaussianBlur8605-7"
         result="result1"
         stdDeviation="3" />
      <feBlend
         id="feBlend8607-6"
         in2="result1"
         result="result5"
         mode="multiply"
         in="result1" />
      <feGaussianBlur
         id="feGaussianBlur8609-7"
         in="result5"
         result="result6"
         stdDeviation="1" />
      <feComposite
         id="feComposite8611-5"
         in2="result5"
         result="result8"
         in="result6"
         operator="xor" />
      <feComposite
         id="feComposite8613-7"
         in2="result8"
         in="result6"
         result="fbSourceGraphic"
         operator="xor" />
      <feSpecularLighting
         id="feSpecularLighting8615-4"
         in="fbSourceGraphic"
         result="result1"
         lighting-color="#ffffff"
         surfaceScale="2"
         specularConstant="2.20000005"
         specularExponent="55">
        <fePointLight
           id="fePointLight8617-5"
           x="-5000"
           y="-10000"
           z="20000" />
      </feSpecularLighting>
      <feComposite
         id="feComposite8619-4"
         in2="fbSourceGraphic"
         in="result1"
         result="result2"
         operator="in" />
      <feComposite
         id="feComposite8621-0"
         in2="result2"
         in="fbSourceGraphic"
         result="result4"
         operator="arithmetic"
         k2="2"
         k3="1"
         k1="0"
         k4="0" />
      <feComposite
         id="feComposite8623-8"
         in2="result4"
         operator="in"
         result="result91" />
      <feBlend
         id="feBlend8625-5"
         in2="result91"
         mode="darken" />
    </filter>
    <linearGradient
       y2="1881.1858"
       x2="304.15808"
       y1="2304.043"
       x1="630.12769"
       gradientTransform="translate(-425.71429,-620)"
       gradientUnits="userSpaceOnUse"
       id="linearGradient8858"
       xlink:href="#linearGradient8475-2"
       inkscape:collect="always" />
    <linearGradient
       inkscape:collect="always"
       id="linearGradient8475-2">
      <stop
         style="stop-color:#2c5aa0;stop-opacity:1;"
         offset="0"
         id="stop8477-1" />
      <stop
         style="stop-color:#2c5aa0;stop-opacity:0;"
         offset="1"
         id="stop8479-7" />
    </linearGradient>
    <filter
       color-interpolation-filters="sRGB"
       id="filter8754-2"
       inkscape:label="Drop Shadow">
      <feFlood
         id="feFlood8756-9"
         flood-opacity="0.85144927536231885"
         flood-color="rgb(0,0,0)"
         result="flood" />
      <feComposite
         id="feComposite8758-0"
         in2="SourceGraphic"
         in="flood"
         operator="in"
         result="composite1" />
      <feGaussianBlur
         id="feGaussianBlur8760-9"
         stdDeviation="2"
         result="blur" />
      <feOffset
         id="feOffset8762-3"
         dx="21"
         dy="21"
         result="offset" />
      <feComposite
         id="feComposite8764-4"
         in2="offset"
         in="SourceGraphic"
         operator="over"
         result="composite2" />
    </filter>
    <linearGradient
       y2="1881.1858"
       x2="304.15808"
       y1="2304.043"
       x1="630.12769"
       gradientTransform="translate(-425.71429,-620)"
       gradientUnits="userSpaceOnUse"
       id="linearGradient8989"
       xlink:href="#linearGradient8475-2"
       inkscape:collect="always" />
  </defs>
  <sodipodi:namedview
     id="base"
     pagecolor="#ffffff"
     bordercolor="#666666"
     borderopacity="1.0"
     inkscape:pageopacity="0.0"
     inkscape:pageshadow="2"
     inkscape:zoom="1.979899"
     inkscape:cx="162.90387"
     inkscape:cy="108.88837"
     inkscape:document-units="px"
     inkscape:current-layer="layer1"
     showgrid="false"
     fit-margin-top="5"
     fit-margin-left="5"
     fit-margin-right="5"
     fit-margin-bottom="5"
     inkscape:window-width="1122"
     inkscape:window-height="788"
     inkscape:window-x="257"
     inkscape:window-y="171"
     inkscape:window-maximized="0" />
  <metadata
     id="metadata8996">
    <rdf:RDF>
      <cc:Work
         rdf:about="">
        <dc:format>image/svg+xml</dc:format>
        <dc:type
           rdf:resource="http://purl.org/dc/dcmitype/StillImage" />
        <dc:title></dc:title>
      </cc:Work>
    </rdf:RDF>
  </metadata>
  <g
     inkscape:label="Layer 1"
     inkscape:groupmode="layer"
     id="layer1"
     transform="translate(79.178106,-365.0475)">
    <path
       style="color:#000000;fill:url(#linearGradient8989);fill-opacity:1;stroke:none;stroke-width:4.87791443;marker:none;visibility:visible;display:inline;overflow:visible;filter:url(#filter8754-2);enable-background:accumulate"
       inkscape:connector-curvature="0"
       id="Selection-5-4-9"
       d="m 243.20684,1457.9724 c 58.34836,-31.7998 131.54644,-31.0121 186.71469,7.7312 42.03997,29.5243 63.0162,71.1266 69.14295,121.2478 0,0 0,48.9835 0,48.9835 0,0 38.27634,35.6216 38.27634,35.6216 24.38974,27.7447 27.19052,52.4552 26.78202,87.5226 -0.81697,68.7051 -57.21038,110.7743 -122.53165,110.8618 0,0 -417.190535,0 -417.190535,0 -82.62138,-0.1168 -138.052225,-57.8524 -137.118535,-140.036 0.55438,-47.8165 25.352315,-91.0526 67.100505,-114.7129 24.65236,-13.9744 39.4142895,-11.728 48.1372895,-19.0507 6.0684,-5.0763 9.3357305,-16.5417 13.0701905,-23.7769 5.10555,-9.8901 13.01157,-21.0638 20.74281,-29.0575 28.21146,-29.1742 71.155945,-40.0561 110.599395,-33.842 0,0 37.9262,10.386 37.9262,10.386 8.40234,-25.2649 35.35915,-49.3336 58.34833,-61.8785 z"
       transform="matrix(0.35811928,0,0,0.35321479,-34.796448,-111.85727)" />
    <path
       sodipodi:nodetypes="cccccccccccccccsccccccccccccccccccccccccccccccccccccccccccccccccccccccsccccccccccccccccccccccccccccccccccccccc"
       inkscape:connector-curvature="0"
       style="fill:#cccccc;fill-opacity:0.65979381;stroke:none;display:inline;filter:url(#filter8603-5)"
       d="m -782.38834,1933.3738 c 2.0099,-0.4283 6.2357,-0.8072 7.1254,-2.8996 1.1532,-2.6854 -2.9078,-9.0695 -4.4235,-11.2771 -5.1073,-7.4302 -10.2805,-14.4651 -10.8653,-23.8888 -0.8897,-14.5391 11.2442,-27.6368 22.9908,-34.408 12.2987,-7.0925 26.2283,-10.6758 39.5401,-15.297 11.7631,-4.0858 29.3172,-11.5325 40.3637,-17.2329 16.6563,-8.5917 39.2353,-28.4688 55.1913,-32.9417 6.6477,-1.87 20.9397,-4.4401 23.9464,4.3411 1.6227,4.7201 -3.3856,10.5934 -3.9951,14.8111 -0.3873,2.7348 1.0132,3.8469 1.425,7.4137 l 0,12.3562 c 0.025,11.6232 -3.748,18.7157 -8.8141,28.8313 -11.03,21.9941 -36.1215,47.5963 -58.6922,57.6625 4.8436,5.9887 3.0808,5.1896 4.7036,11.5325 4.819,18.8886 -5.9722,31.6897 -22.0024,40.1002 -6.8453,3.5915 -12.8587,4.3905 -19.77,9.3248 l 24.7125,-2.4712 c 14.9676,-2.9244 17.793,-5.0661 34.5975,-5.9805 l 6.59,0 21.4175,1.2769 10.7088,2.1252 c 18.7403,2.8173 32.2498,5.0743 48.6013,15.8243 7.3643,4.8354 14.6544,12.0597 20.2148,18.8803 7.7845,9.5555 12.834,21.0221 17.933,32.1263 9.572,20.8491 17.4471,39.8613 31.4343,58.4862 6.1617,8.1964 14.4404,16.4092 23.5016,21.2693 l 14.0039,5.3544 c 9.3,4.4153 17.6694,12.348 19.7699,22.8014 -7.4055,0.3377 -12.7764,3.0231 -20.5938,0.8814 -7.529,-2.0594 -12.142,-7.9492 -17.3069,-13.2377 l -15.7007,-14.8275 c -15.7007,-15.7831 -26.1459,-29.8527 -36.7558,-49.425 -13.9708,-25.7752 -21.2198,-52.4729 -48.8566,-67.6628 -7.4796,-4.1023 -12.7928,-4.506 -20.5938,-6.4747 0.4284,9.3001 1.87,18.732 0,28.0075 -1.4415,7.1254 -6.5323,20.8409 -5.5025,27.1837 0.7907,4.8602 6.5982,16.6151 9.5636,20.5856 2.842,3.8139 5.7087,5.1072 7.4303,9.8932 1.7793,5.2226 0.107,10.3463 0,15.6512 l 3.3361,37.8926 -40.3637,0 c 0.4119,-5.1073 2.9326,-7.801 8.2375,-8.1222 3.2209,-0.1977 6.7383,1.3921 8.2952,-2.6772 1.1285,-2.949 -0.9062,-11.5984 -1.87,-14.7369 -2.1829,-7.0925 -11.7384,-23.4686 -16.6974,-28.5676 -2.7678,-2.842 -6.7218,-5.2226 -10.3216,-6.8537 -0.453,1.4993 -1.1862,3.3857 -1.112,4.9425 0.1483,3.1468 6.7465,13.7896 8.913,16.475 3.2702,4.0611 7.4631,7.3314 6.7218,13.1801 -0.4284,3.402 -2.7431,6.9771 -4.473,9.8849 -2.1829,3.6657 -7.1913,13.6825 -10.4287,15.6595 -1.4003,0.8485 -2.9902,0.7826 -4.5636,0.8156 l -19.7699,0 c 2.6854,-5.5851 9.4236,-16.0961 8.5669,-22.2413 -1.3262,-9.399 -10.7746,-14.7039 -16.6562,-21.4175 -3.5586,-4.0693 -6.9771,-10.2392 -9.9921,-14.8275 -2.2323,-3.3939 -4.926,-5.7992 -6.1039,-9.885 -0.8238,-2.8419 -0.5273,-11.4007 -0.5273,-14.8275 l -18.1225,4.8189 -24.7125,6.796 -9.0612,1.7546 -10.7088,2.7348 -20.5937,3.3115 c -2.8667,0.4201 -7.2985,0.2801 -9.6626,1.944 -3.7234,2.636 -3.3444,9.1601 -7.1337,14.0614 l -6.1287,6.59 -12.4963,13.8555 -17.1587,15.3382 c -10.4946,9.7862 -6.8701,11.9774 -16.6151,11.9939 l -46.13,0 c -3.5092,0 -14.8028,1.8204 -13.4189,-4.1352 0.4119,-1.7958 2.0841,-4.2012 3.1303,-5.7498 3.6245,-5.3709 6.7053,-8.3776 13.5836,-7.2326 6.6724,1.1121 8.2705,6.8454 15.643,0.9473 7.3149,-5.8651 8.1799,-12.0844 12.4387,-19.251 l 10.338,-14.0038 10.1816,-17.2987 c -4.5965,-1.9276 -10.091,-3.0396 -14.0038,-6.0875 -4.9754,-3.8799 -5.6756,-6.5818 -8.9953,-11.2113 -3.4433,-4.786 -6.4912,-8.4022 -8.8389,-14.0037 -1.8452,-4.3906 -4.3494,-13.4024 -4.407,-18.1225 l -0.8238,-15.6513 0.7908,-9.0612 0,-10.7088 c 0.1071,-6.3676 1.3016,-6.7877 2.5042,-12.3562 -5.8568,3.1549 -15.6265,13.5589 -20.6844,7.8421 -1.5651,-1.7793 -1.4909,-4.6378 -2.4382,-7.0184 -0.7497,-1.9029 -2.043,-3.5915 -2.0512,-5.7333 -0.01,-3.1467 2.0676,-2.9325 2.1088,-8.2704 l 7.4138,2.4712 2.4712,-8.2375 c -2.5124,0.025 -5.0331,-0.082 -7.3396,1.0791 l -4.3,2.9161 c -2.3559,0.8485 -4.1434,-1.4333 -5.7333,-2.8337 -7.422,-6.5735 -4.6871,-4.4565 -7.9986,-11.8373 -1.5074,-3.3527 -5.1402,-5.931 -4.8354,-9.9097 0.2554,-3.3197 2.949,-4.8272 5.4944,-6.3758 5.3791,-3.2539 7.4879,-5.6263 14.0038,-5.9887 0.041,-4.3412 0.2059,-7.4797 4.1517,-10.2227 2.7842,-1.9276 5.0166,-0.9062 8.8059,-5.445 3.8057,-4.5636 1.7546,-7.7433 10.1074,-11.5984 4.3329,-1.9935 13.5507,-2.8832 18.1225,-1.8288 l 6.59,2.3395 c 6.2193,1.7711 3.3526,0.5354 9.885,3.3609 9.2632,1.8018 14.7195,10.3476 19.943,15.9066 l 5.1237,4.4565 c 1.7052,1.9852 2.0511,4.1517 3.3856,6.3264 3.3856,5.5356 5.4203,6.9772 6.1452,14.0038 7.0431,-2.3312 7.1831,-5.5439 18.9463,-8.0646 z"
       id="Selection-7-0-7"
       transform="matrix(0.29963175,0,0,0.29963175,265.6028,-110.67154)" />
    <g
       id="flowRoot3011-5"
       style="font-size:22px;font-style:normal;font-variant:normal;font-weight:bold;font-stretch:normal;line-height:125%;letter-spacing:0px;word-spacing:0px;fill:#000000;fill-opacity:1;stroke:none;display:inline;font-family:Arial;-inkscape-font-specification:Arial Bold"
       transform="matrix(0.35790646,0,0,0.35790646,-66.612395,320.35648)">
      <path
         inkscape:connector-curvature="0"
         id="path3914-9"
         style="fill:#0000ff"
         d="M 41.164062,722.86326 21.6875,726.37888 c -0.656305,-3.89057 -2.156304,-6.82026 -4.5,-8.78906 -2.296924,-1.96869 -5.296921,-2.95307 -9,-2.95313 -4.9219125,6e-5 -8.85940861,1.711 -11.8125,5.13282 -2.9062778,3.37505 -4.3594013,9.04692 -4.359375,17.01562 -2.63e-5,8.85941 1.4765347,15.11721 4.4296875,18.77344 2.99996627,3.65627 7.0077748,5.48439 12.0234375,5.48437 3.749954,2e-5 6.820263,-1.05467 9.210937,-3.16406 2.390571,-2.15623 4.078069,-5.83591 5.0625,-11.03906 l 19.40625,3.30469 c -2.015699,8.90626 -5.882883,15.63282 -11.601562,20.17968 -5.718809,4.54688 -13.382864,6.82031 -22.9921875,6.82032 -10.9219059,-10e-6 -19.6406475,-3.44531 -26.1562495,-10.33594 -6.46876,-6.89061 -9.703131,-16.42966 -9.703125,-28.61719 -6e-6,-12.32807 3.257803,-21.914 9.773437,-28.75781 6.515603,-6.89055 15.3280939,-10.33586 26.4375,-10.33594 9.093699,8e-5 16.312441,1.96883 21.65625,5.90625 5.390556,3.89069 9.257739,9.84381 11.601562,17.85938" />
      <path
         inkscape:connector-curvature="0"
         id="path3916-5"
         style="fill:#0000ff"
         d="m 99.453125,751.69138 19.687505,3.30469 c -2.53133,7.21876 -6.53913,12.72657 -12.02344,16.52344 -5.43756,3.75 -12.257864,5.62499 -20.46094,5.625 -12.984403,-10e-6 -22.593768,-4.24219 -28.828125,-12.72657 -4.921882,-6.79685 -7.382817,-15.37497 -7.382813,-25.73437 -4e-6,-12.37495 3.234368,-22.05463 9.703125,-29.03906 6.46873,-7.03118 14.648409,-10.5468 24.539063,-10.54688 11.109325,8e-5 19.87494,3.67976 26.29688,11.03906 6.4218,7.31256 9.49211,18.53911 9.21093,33.67969 l -49.499998,0 c 0.140601,5.8594 1.734349,10.42971 4.78125,13.71094 3.046843,3.23439 6.843714,4.85157 11.390625,4.85156 3.093706,10e-6 5.695266,-0.84373 7.804688,-2.53125 2.109324,-1.68748 3.703073,-4.40623 4.78125,-8.15625 m 1.125005,-19.96875 c -0.14068,-5.7187 -1.617246,-10.05463 -4.429693,-13.00781 -2.812547,-2.99994 -6.234419,-4.49994 -10.265625,-4.5 -4.312535,6e-5 -7.875032,1.57037 -10.6875,4.71094 -2.812526,3.14067 -4.195337,7.4063 -4.148437,12.79687 l 29.531255,0" />
      <path
         inkscape:connector-curvature="0"
         id="path3918-3"
         style="fill:#0000ff"
         d="m 204.85156,775.45701 -18.35156,0 0,-10.96875 c -3.04693,4.26563 -6.6563,7.45312 -10.82813,9.5625 -4.12504,2.0625 -8.29691,3.09374 -12.51562,3.09375 -8.57815,-10e-6 -15.93752,-3.44531 -22.07813,-10.33594 -6.09375,-6.93749 -9.14063,-16.59373 -9.14062,-28.96875 -1e-5,-12.6562 2.97655,-22.26557 8.92969,-28.82813 5.9531,-6.6093 13.47653,-9.91398 22.57031,-9.91406 8.3437,8e-5 15.56245,3.46882 21.65625,10.40625 l 0,-37.125 19.75781,0 0,103.07813 m -52.73437,-38.95313 c -3e-5,7.96878 1.10153,13.7344 3.30468,17.29688 3.18747,5.15626 7.64059,7.73439 13.35938,7.73437 4.54683,2e-5 8.41401,-1.92186 11.60156,-5.76562 3.18744,-3.89061 4.78119,-9.67966 4.78125,-17.36719 -6e-5,-8.57808 -1.54693,-14.74214 -4.64062,-18.49219 -3.0938,-3.79681 -7.05474,-5.69525 -11.88282,-5.69531 -4.68753,6e-5 -8.62503,1.87506 -11.8125,5.625 -3.14065,3.70318 -4.71096,9.25786 -4.71093,16.66406" />
      <path
         inkscape:connector-curvature="0"
         id="path3920-8"
         style="fill:#0000ff"
         d="m 289.50781,722.86326 -19.47656,3.51562 c -0.65631,-3.89057 -2.1563,-6.82026 -4.5,-8.78906 -2.29692,-1.96869 -5.29692,-2.95307 -9,-2.95313 -4.92191,6e-5 -8.85941,1.711 -11.8125,5.13282 -2.90628,3.37505 -4.3594,9.04692 -4.35938,17.01562 -2e-5,8.85941 1.47654,15.11721 4.42969,18.77344 2.99997,3.65627 7.00778,5.48439 12.02344,5.48437 3.74995,2e-5 6.82026,-1.05467 9.21094,-3.16406 2.39057,-2.15623 4.07807,-5.83591 5.0625,-11.03906 l 19.40625,3.30469 c -2.0157,8.90626 -5.88289,15.63282 -11.60157,20.17968 -5.7188,4.54688 -13.38286,6.82031 -22.99218,6.82032 -10.92191,-10e-6 -19.64065,-3.44531 -26.15625,-10.33594 -6.46876,-6.89061 -9.70313,-16.42966 -9.70313,-28.61719 0,-12.32807 3.25781,-21.914 9.77344,-28.75781 6.5156,-6.89055 15.32809,-10.33586 26.4375,-10.33594 9.0937,8e-5 16.31244,1.96883 21.65625,5.90625 5.39056,3.89069 9.25774,9.84381 11.60156,17.85938" />
      <path
         inkscape:connector-curvature="0"
         id="path3922-1"
         style="fill:#4d4d4d"
         d="m 369.66406,722.86326 -19.47656,3.51562 c -0.65631,-3.89057 -2.1563,-6.82026 -4.5,-8.78906 -2.29692,-1.96869 -5.29692,-2.95307 -9,-2.95313 -4.92191,6e-5 -8.85941,1.711 -11.8125,5.13282 -2.90628,3.37505 -4.3594,9.04692 -4.35938,17.01562 -2e-5,8.85941 1.47654,15.11721 4.42969,18.77344 2.99997,3.65627 7.00778,5.48439 12.02344,5.48437 3.74995,2e-5 6.82026,-1.05467 9.21094,-3.16406 2.39057,-2.15623 4.07807,-5.83591 5.0625,-11.03906 l 19.40625,3.30469 c -2.0157,8.90626 -5.88289,15.63282 -11.60157,20.17968 -5.7188,4.54688 -13.38286,6.82031 -22.99218,6.82032 -10.92191,-10e-6 -19.64065,-3.44531 -26.15625,-10.33594 -6.46876,-6.89061 -9.70313,-16.42966 -9.70313,-28.61719 0,-12.32807 3.25781,-21.914 9.77344,-28.75781 6.5156,-6.89055 15.32809,-10.33586 26.4375,-10.33594 9.0937,8e-5 16.31244,1.96883 21.65625,5.90625 5.39056,3.89069 9.25774,9.84381 11.60156,17.85938" />
      <path
         inkscape:connector-curvature="0"
         id="path3924-7"
         style="fill:#4d4d4d"
         d="m 384.71094,775.45701 0,-103.07813 19.75781,0 0,103.07813 -19.75781,0" />
      <path
         inkscape:connector-curvature="0"
         id="path3926-2"
         style="fill:#4d4d4d"
         d="m 420.07812,737.06638 c 0,-6.56245 1.61719,-12.91401 4.85157,-19.05469 3.23436,-6.14056 7.80467,-10.82805 13.71093,-14.0625 5.9531,-3.2343 12.58591,-4.85148 19.89844,-4.85156 11.29682,8e-5 20.55463,3.67976 27.77344,11.03906 7.21867,7.31256 10.82804,16.57037 10.82812,27.77344 -8e-5,11.2969 -3.65632,20.67189 -10.96875,28.125 -7.26568,7.40625 -16.42974,11.10937 -27.49218,11.10938 -6.84379,-10e-6 -13.38285,-1.54688 -19.61719,-4.64063 -6.18752,-3.09374 -10.89845,-7.61718 -14.13281,-13.57031 -3.23438,-5.99998 -4.85157,-13.28903 -4.85157,-21.86719 m 20.25,1.05469 c -2e-5,7.40628 1.75779,13.07815 5.27344,17.01562 3.51559,3.93752 7.85153,5.90627 13.00781,5.90625 5.15621,2e-5 9.4687,-1.96873 12.9375,-5.90625 3.51557,-3.93747 5.27338,-9.65622 5.27344,-17.15625 -6e-5,-7.31245 -1.75787,-12.93745 -5.27344,-16.875 -3.4688,-3.93744 -7.78129,-5.90619 -12.9375,-5.90625 -5.15628,6e-5 -9.49222,1.96881 -13.00781,5.90625 -3.51565,3.93755 -5.27346,9.60942 -5.27344,17.01563" />
      <path
         inkscape:connector-curvature="0"
         id="path3928-3"
         style="fill:#4d4d4d"
         d="m 561.82812,775.45701 0,-11.17969 c -2.7188,3.98438 -6.30474,7.125 -10.75781,9.42187 -4.40629,2.29688 -9.07035,3.44531 -13.99219,3.44532 -5.01565,-10e-6 -9.51565,-1.10157 -13.5,-3.30469 -3.98439,-2.20312 -6.8672,-5.29687 -8.64843,-9.28125 -1.78126,-3.98436 -2.67189,-9.49217 -2.67188,-16.52344 l 0,-47.25 19.75781,0 0,34.3125 c -2e-5,10.50003 0.35154,16.94534 1.05469,19.33594 0.74997,2.34377 2.08591,4.21877 4.00781,5.625 1.92184,1.35939 4.35934,2.03907 7.3125,2.03906 3.37496,10e-6 6.39839,-0.91405 9.07032,-2.74219 2.67182,-1.87498 4.49994,-4.17185 5.48437,-6.89062 0.98432,-2.7656 1.47651,-9.49216 1.47656,-20.17969 l 0,-31.5 19.75782,0 0,74.67188 -18.35157,0" />
      <path
         inkscape:connector-curvature="0"
         id="path3930-8"
         style="fill:#4d4d4d"
         d="m 669.19531,775.45701 -18.35156,0 0,-10.96875 c -3.04693,4.26563 -6.6563,7.45312 -10.82813,9.5625 -4.12504,2.0625 -8.29691,3.09374 -12.51562,3.09375 -8.57815,-10e-6 -15.93752,-3.44531 -22.07813,-10.33594 -6.09375,-6.93749 -9.14063,-16.59373 -9.14062,-28.96875 -10e-6,-12.6562 2.97655,-22.26557 8.92969,-28.82813 5.9531,-6.6093 13.47653,-9.91398 22.57031,-9.91406 8.3437,8e-5 15.56245,3.46882 21.65625,10.40625 l 0,-37.125 19.75781,0 0,103.07813 m -52.73437,-38.95313 c -3e-5,7.96878 1.10153,13.7344 3.30468,17.29688 3.18747,5.15626 7.64059,7.73439 13.35938,7.73437 4.54683,2e-5 8.41401,-1.92186 11.60156,-5.76562 3.18744,-3.89061 4.78119,-9.67966 4.78125,-17.36719 -6e-5,-8.57808 -1.54693,-14.74214 -4.64062,-18.49219 -3.0938,-3.79681 -7.05474,-5.69525 -11.88282,-5.69531 -4.68753,6e-5 -8.62503,1.87506 -11.8125,5.625 -3.14065,3.70318 -4.71096,9.25786 -4.71093,16.66406" />
    </g>
  </g>
</svg>
