<?xml version="1.0" encoding="UTF-8" standalone="no"?>
<!-- Created with Inkscape (http://www.inkscape.org/) -->

<svg
   xmlns:dc="http://purl.org/dc/elements/1.1/"
   xmlns:cc="http://creativecommons.org/ns#"
   xmlns:rdf="http://www.w3.org/1999/02/22-rdf-syntax-ns#"
   xmlns:svg="http://www.w3.org/2000/svg"
   xmlns="http://www.w3.org/2000/svg"
   xmlns:xlink="http://www.w3.org/1999/xlink"
   xmlns:sodipodi="http://sodipodi.sourceforge.net/DTD/sodipodi-0.dtd"
   xmlns:inkscape="http://www.inkscape.org/namespaces/inkscape"
   width="711.88757"
   height="592.61432"
   id="svg4329"
   version="1.1"
   inkscape:version="0.48.4 r9939"
   sodipodi:docname="nuvoleo3.svg">
  <defs
     id="defs4331">
    <linearGradient
       inkscape:collect="always"
       id="linearGradient3828">
      <stop
         style="stop-color:#ffffff;stop-opacity:1;"
         offset="0"
         id="stop3830" />
      <stop
         style="stop-color:#ffffff;stop-opacity:0;"
         offset="1"
         id="stop3832" />
    </linearGradient>
    <linearGradient
       inkscape:collect="always"
       id="linearGradient4353">
      <stop
         style="stop-color:#0000c0;stop-opacity:1;"
         offset="0"
         id="stop4355" />
      <stop
         style="stop-color:#0000c0;stop-opacity:0;"
         offset="1"
         id="stop4357" />
    </linearGradient>
    <linearGradient
       inkscape:collect="always"
       id="linearGradient4345">
      <stop
         style="stop-color:#0000ff;stop-opacity:1;"
         offset="0"
         id="stop4347" />
      <stop
         style="stop-color:#0000ff;stop-opacity:0;"
         offset="1"
         id="stop4349" />
    </linearGradient>
    <linearGradient
       inkscape:collect="always"
       id="linearGradient5217">
      <stop
         style="stop-color:#d7eef4;stop-opacity:1;"
         offset="0"
         id="stop5219" />
      <stop
         style="stop-color:#d7eef4;stop-opacity:0;"
         offset="1"
         id="stop5221" />
    </linearGradient>
    <linearGradient
       id="linearGradient5098">
      <stop
         style="stop-color:#23489d;stop-opacity:1;"
         offset="0"
         id="stop5100" />
      <stop
         style="stop-color:#d5f6ff;stop-opacity:0"
         offset="1"
         id="stop5102" />
    </linearGradient>
    <radialGradient
       inkscape:collect="always"
       xlink:href="#linearGradient5086-4"
       id="radialGradient5132-3"
       cx="340"
       cy="449.50504"
       fx="340"
       fy="449.50504"
       r="348.44376"
       gradientTransform="matrix(1.9470681,0.02459919,-0.01445702,1.1442976,-315.50466,-73.226197)"
       gradientUnits="userSpaceOnUse" />
    <linearGradient
       id="linearGradient5086-4">
      <stop
         style="stop-color:#3771c8;stop-opacity:1;"
         offset="0"
         id="stop5088-0" />
      <stop
         style="stop-color:#3771c8;stop-opacity:0;"
         offset="1"
         id="stop5090-1" />
    </linearGradient>
    <linearGradient
       inkscape:collect="always"
       xlink:href="#linearGradient5217"
       id="linearGradient5223"
       x1="-189.99998"
       y1="289.50504"
       x2="424.28571"
       y2="289.50504"
       gradientUnits="userSpaceOnUse" />
    <radialGradient
       inkscape:collect="always"
       xlink:href="#linearGradient4345"
       id="radialGradient4351"
       cx="327.17926"
       cy="371.78192"
       fx="327.17926"
       fy="371.78192"
       r="350.94016"
       gradientTransform="matrix(1.0504668,-1.0002761,1.0833809,1.1377414,-364.4278,268.64077)"
       gradientUnits="userSpaceOnUse" />
    <radialGradient
       inkscape:collect="always"
       xlink:href="#linearGradient4353"
       id="radialGradient4359"
       cx="348.48563"
       cy="430.32739"
       fx="348.48563"
       fy="430.32739"
       r="343.44217"
       gradientTransform="matrix(0.51506969,-1.291754,1.1186248,0.44603672,-268.82277,609.72726)"
       gradientUnits="userSpaceOnUse" />
    <radialGradient
       inkscape:collect="always"
       xlink:href="#linearGradient4353-3"
       id="radialGradient4359-3"
       cx="348.48563"
       cy="430.32739"
       fx="348.48563"
       fy="430.32739"
       r="343.44217"
       gradientTransform="matrix(0.51506969,-1.291754,1.1186248,0.44603672,-260.81134,609.72726)"
       gradientUnits="userSpaceOnUse" />
    <linearGradient
       inkscape:collect="always"
       id="linearGradient4353-3">
      <stop
         style="stop-color:#0000c0;stop-opacity:1;"
         offset="0"
         id="stop4355-7" />
      <stop
         style="stop-color:#0000c0;stop-opacity:0;"
         offset="1"
         id="stop4357-9" />
    </linearGradient>
    <linearGradient
       inkscape:collect="always"
       xlink:href="#linearGradient3828"
       id="linearGradient3834"
       x1="174.75"
       y1="36.32526"
       x2="422.44196"
       y2="452.03955"
       gradientUnits="userSpaceOnUse" />
  </defs>
  <sodipodi:namedview
     id="base"
     pagecolor="#ffffff"
     bordercolor="#666666"
     borderopacity="1.0"
     inkscape:pageopacity="0.0"
     inkscape:pageshadow="2"
     inkscape:zoom="0.7"
     inkscape:cx="13.343049"
     inkscape:cy="103.91555"
     inkscape:document-units="px"
     inkscape:current-layer="layer2"
     showgrid="false"
     inkscape:window-width="1892"
     inkscape:window-height="1038"
     inkscape:window-x="0"
     inkscape:window-y="0"
     inkscape:window-maximized="1"
     fit-margin-top="5"
     fit-margin-left="5"
     fit-margin-right="5"
     fit-margin-bottom="5" />
  <metadata
     id="metadata4334">
    <rdf:RDF>
      <cc:Work
         rdf:about="">
        <dc:format>image/svg+xml</dc:format>
        <dc:type
           rdf:resource="http://purl.org/dc/dcmitype/StillImage" />
        <dc:title />
      </cc:Work>
    </rdf:RDF>
  </metadata>
  <g
     inkscape:groupmode="layer"
     id="layer2"
     inkscape:label="cedccloud"
     transform="translate(-7.8506063,-28.520139)"
     style="display:inline">
    <g
       transform="translate(43.349071,-161.01007)"
       style="font-size:22px;font-style:normal;font-variant:normal;font-weight:bold;font-stretch:normal;line-height:125%;letter-spacing:0px;word-spacing:0px;fill:#000000;fill-opacity:1;stroke:none;display:inline;font-family:Arial;-inkscape-font-specification:Arial Bold"
       id="flowRoot3011">
      <path
         d="M 41.164062,722.86326 21.6875,726.37888 c -0.656305,-3.89057 -2.156304,-6.82026 -4.5,-8.78906 -2.296924,-1.96869 -5.296921,-2.95307 -9,-2.95313 -4.9219125,6e-5 -8.85940861,1.711 -11.8125,5.13282 -2.9062778,3.37505 -4.3594013,9.04692 -4.359375,17.01562 -2.63e-5,8.85941 1.4765347,15.11721 4.4296875,18.77344 2.99996627,3.65627 7.0077748,5.48439 12.0234375,5.48437 3.749954,2e-5 6.820263,-1.05467 9.210937,-3.16406 2.390571,-2.15623 4.078069,-5.83591 5.0625,-11.03906 l 19.40625,3.30469 c -2.015699,8.90626 -5.882883,15.63282 -11.601562,20.17968 -5.718809,4.54688 -13.382864,6.82031 -22.9921875,6.82032 -10.9219059,-10e-6 -19.6406475,-3.44531 -26.1562495,-10.33594 -6.46876,-6.89061 -9.703131,-16.42966 -9.703125,-28.61719 -6e-6,-12.32807 3.257803,-21.914 9.773437,-28.75781 6.515603,-6.89055 15.3280939,-10.33586 26.4375,-10.33594 9.093699,8e-5 16.312441,1.96883 21.65625,5.90625 5.390556,3.89069 9.257739,9.84381 11.601562,17.85938"
         style="fill:#0000ff"
         id="path3914"
         inkscape:connector-curvature="0" />
      <path
         d="m 99.453125,751.69138 19.687505,3.30469 c -2.53133,7.21876 -6.53913,12.72657 -12.02344,16.52344 -5.43756,3.75 -12.257864,5.62499 -20.46094,5.625 -12.984403,-10e-6 -22.593768,-4.24219 -28.828125,-12.72657 -4.921882,-6.79685 -7.382817,-15.37497 -7.382813,-25.73437 -4e-6,-12.37495 3.234368,-22.05463 9.703125,-29.03906 6.46873,-7.03118 14.648409,-10.5468 24.539063,-10.54688 11.109325,8e-5 19.87494,3.67976 26.29688,11.03906 6.4218,7.31256 9.49211,18.53911 9.21093,33.67969 l -49.499998,0 c 0.140601,5.8594 1.734349,10.42971 4.78125,13.71094 3.046843,3.23439 6.843714,4.85157 11.390625,4.85156 3.093706,10e-6 5.695266,-0.84373 7.804688,-2.53125 2.109324,-1.68748 3.703073,-4.40623 4.78125,-8.15625 m 1.125005,-19.96875 c -0.14068,-5.7187 -1.617246,-10.05463 -4.429693,-13.00781 -2.812547,-2.99994 -6.234419,-4.49994 -10.265625,-4.5 -4.312535,6e-5 -7.875032,1.57037 -10.6875,4.71094 -2.812526,3.14067 -4.195337,7.4063 -4.148437,12.79687 l 29.531255,0"
         style="fill:#0000ff"
         id="path3916"
         inkscape:connector-curvature="0" />
      <path
         d="m 204.85156,775.45701 -18.35156,0 0,-10.96875 c -3.04693,4.26563 -6.6563,7.45312 -10.82813,9.5625 -4.12504,2.0625 -8.29691,3.09374 -12.51562,3.09375 -8.57815,-10e-6 -15.93752,-3.44531 -22.07813,-10.33594 -6.09375,-6.93749 -9.14063,-16.59373 -9.14062,-28.96875 -1e-5,-12.6562 2.97655,-22.26557 8.92969,-28.82813 5.9531,-6.6093 13.47653,-9.91398 22.57031,-9.91406 8.3437,8e-5 15.56245,3.46882 21.65625,10.40625 l 0,-37.125 19.75781,0 0,103.07813 m -52.73437,-38.95313 c -3e-5,7.96878 1.10153,13.7344 3.30468,17.29688 3.18747,5.15626 7.64059,7.73439 13.35938,7.73437 4.54683,2e-5 8.41401,-1.92186 11.60156,-5.76562 3.18744,-3.89061 4.78119,-9.67966 4.78125,-17.36719 -6e-5,-8.57808 -1.54693,-14.74214 -4.64062,-18.49219 -3.0938,-3.79681 -7.05474,-5.69525 -11.88282,-5.69531 -4.68753,6e-5 -8.62503,1.87506 -11.8125,5.625 -3.14065,3.70318 -4.71096,9.25786 -4.71093,16.66406"
         style="fill:#0000ff"
         id="path3918"
         inkscape:connector-curvature="0" />
      <path
         d="m 289.50781,722.86326 -19.47656,3.51562 c -0.65631,-3.89057 -2.1563,-6.82026 -4.5,-8.78906 -2.29692,-1.96869 -5.29692,-2.95307 -9,-2.95313 -4.92191,6e-5 -8.85941,1.711 -11.8125,5.13282 -2.90628,3.37505 -4.3594,9.04692 -4.35938,17.01562 -2e-5,8.85941 1.47654,15.11721 4.42969,18.77344 2.99997,3.65627 7.00778,5.48439 12.02344,5.48437 3.74995,2e-5 6.82026,-1.05467 9.21094,-3.16406 2.39057,-2.15623 4.07807,-5.83591 5.0625,-11.03906 l 19.40625,3.30469 c -2.0157,8.90626 -5.88289,15.63282 -11.60157,20.17968 -5.7188,4.54688 -13.38286,6.82031 -22.99218,6.82032 -10.92191,-10e-6 -19.64065,-3.44531 -26.15625,-10.33594 -6.46876,-6.89061 -9.70313,-16.42966 -9.70313,-28.61719 0,-12.32807 3.25781,-21.914 9.77344,-28.75781 6.5156,-6.89055 15.32809,-10.33586 26.4375,-10.33594 9.0937,8e-5 16.31244,1.96883 21.65625,5.90625 5.39056,3.89069 9.25774,9.84381 11.60156,17.85938"
         style="fill:#0000ff"
         id="path3920"
         inkscape:connector-curvature="0" />
      <path
         d="m 369.66406,722.86326 -19.47656,3.51562 c -0.65631,-3.89057 -2.1563,-6.82026 -4.5,-8.78906 -2.29692,-1.96869 -5.29692,-2.95307 -9,-2.95313 -4.92191,6e-5 -8.85941,1.711 -11.8125,5.13282 -2.90628,3.37505 -4.3594,9.04692 -4.35938,17.01562 -2e-5,8.85941 1.47654,15.11721 4.42969,18.77344 2.99997,3.65627 7.00778,5.48439 12.02344,5.48437 3.74995,2e-5 6.82026,-1.05467 9.21094,-3.16406 2.39057,-2.15623 4.07807,-5.83591 5.0625,-11.03906 l 19.40625,3.30469 c -2.0157,8.90626 -5.88289,15.63282 -11.60157,20.17968 -5.7188,4.54688 -13.38286,6.82031 -22.99218,6.82032 -10.92191,-10e-6 -19.64065,-3.44531 -26.15625,-10.33594 -6.46876,-6.89061 -9.70313,-16.42966 -9.70313,-28.61719 0,-12.32807 3.25781,-21.914 9.77344,-28.75781 6.5156,-6.89055 15.32809,-10.33586 26.4375,-10.33594 9.0937,8e-5 16.31244,1.96883 21.65625,5.90625 5.39056,3.89069 9.25774,9.84381 11.60156,17.85938"
         style="fill:#4d4d4d"
         id="path3922"
         inkscape:connector-curvature="0" />
      <path
         d="m 384.71094,775.45701 0,-103.07813 19.75781,0 0,103.07813 -19.75781,0"
         style="fill:#4d4d4d"
         id="path3924"
         inkscape:connector-curvature="0" />
      <path
         d="m 420.07812,737.06638 c 0,-6.56245 1.61719,-12.91401 4.85157,-19.05469 3.23436,-6.14056 7.80467,-10.82805 13.71093,-14.0625 5.9531,-3.2343 12.58591,-4.85148 19.89844,-4.85156 11.29682,8e-5 20.55463,3.67976 27.77344,11.03906 7.21867,7.31256 10.82804,16.57037 10.82812,27.77344 -8e-5,11.2969 -3.65632,20.67189 -10.96875,28.125 -7.26568,7.40625 -16.42974,11.10937 -27.49218,11.10938 -6.84379,-10e-6 -13.38285,-1.54688 -19.61719,-4.64063 -6.18752,-3.09374 -10.89845,-7.61718 -14.13281,-13.57031 -3.23438,-5.99998 -4.85157,-13.28903 -4.85157,-21.86719 m 20.25,1.05469 c -2e-5,7.40628 1.75779,13.07815 5.27344,17.01562 3.51559,3.93752 7.85153,5.90627 13.00781,5.90625 5.15621,2e-5 9.4687,-1.96873 12.9375,-5.90625 3.51557,-3.93747 5.27338,-9.65622 5.27344,-17.15625 -6e-5,-7.31245 -1.75787,-12.93745 -5.27344,-16.875 -3.4688,-3.93744 -7.78129,-5.90619 -12.9375,-5.90625 -5.15628,6e-5 -9.49222,1.96881 -13.00781,5.90625 -3.51565,3.93755 -5.27346,9.60942 -5.27344,17.01563"
         style="fill:#4d4d4d"
         id="path3926"
         inkscape:connector-curvature="0" />
      <path
         d="m 561.82812,775.45701 0,-11.17969 c -2.7188,3.98438 -6.30474,7.125 -10.75781,9.42187 -4.40629,2.29688 -9.07035,3.44531 -13.99219,3.44532 -5.01565,-10e-6 -9.51565,-1.10157 -13.5,-3.30469 -3.98439,-2.20312 -6.8672,-5.29687 -8.64843,-9.28125 -1.78126,-3.98436 -2.67189,-9.49217 -2.67188,-16.52344 l 0,-47.25 19.75781,0 0,34.3125 c -2e-5,10.50003 0.35154,16.94534 1.05469,19.33594 0.74997,2.34377 2.08591,4.21877 4.00781,5.625 1.92184,1.35939 4.35934,2.03907 7.3125,2.03906 3.37496,10e-6 6.39839,-0.91405 9.07032,-2.74219 2.67182,-1.87498 4.49994,-4.17185 5.48437,-6.89062 0.98432,-2.7656 1.47651,-9.49216 1.47656,-20.17969 l 0,-31.5 19.75782,0 0,74.67188 -18.35157,0"
         style="fill:#4d4d4d"
         id="path3928"
         inkscape:connector-curvature="0" />
      <path
         d="m 669.19531,775.45701 -18.35156,0 0,-10.96875 c -3.04693,4.26563 -6.6563,7.45312 -10.82813,9.5625 -4.12504,2.0625 -8.29691,3.09374 -12.51562,3.09375 -8.57815,-10e-6 -15.93752,-3.44531 -22.07813,-10.33594 -6.09375,-6.93749 -9.14063,-16.59373 -9.14062,-28.96875 -10e-6,-12.6562 2.97655,-22.26557 8.92969,-28.82813 5.9531,-6.6093 13.47653,-9.91398 22.57031,-9.91406 8.3437,8e-5 15.56245,3.46882 21.65625,10.40625 l 0,-37.125 19.75781,0 0,103.07813 m -52.73437,-38.95313 c -3e-5,7.96878 1.10153,13.7344 3.30468,17.29688 3.18747,5.15626 7.64059,7.73439 13.35938,7.73437 4.54683,2e-5 8.41401,-1.92186 11.60156,-5.76562 3.18744,-3.89061 4.78119,-9.67966 4.78125,-17.36719 -6e-5,-8.57808 -1.54693,-14.74214 -4.64062,-18.49219 -3.0938,-3.79681 -7.05474,-5.69525 -11.88282,-5.69531 -4.68753,6e-5 -8.62503,1.87506 -11.8125,5.625 -3.14065,3.70318 -4.71096,9.25786 -4.71093,16.66406"
         style="fill:#4d4d4d"
         id="path3930"
         inkscape:connector-curvature="0" />
    </g>
  </g>
  <g
     inkscape:groupmode="layer"
     id="layer7"
     inkscape:label="nuvola2"
     style="display:inline"
     transform="translate(-10.389983,-16.688545)">
    <path
       d="m 383.82632,56.873242 c 58.34836,-31.79984 131.54644,-31.01216 186.71469,7.73117 42.03997,29.52426 63.0162,71.126618 69.14295,121.247848 0,0 0,48.98346 0,48.98346 0,0 38.27634,35.62164 38.27634,35.62164 24.38974,27.74465 27.19052,52.45517 26.78202,87.52252 -0.81697,68.70517 -57.21038,110.77432 -122.53165,110.86185 0,0 -417.19054,0 -417.19054,0 C 82.398757,468.72496 26.967911,410.98934 27.9016,328.80572 c 0.554379,-47.81647 25.352312,-91.0526 67.100505,-114.71287 24.652355,-13.9744 39.414285,-11.72799 48.137285,-19.05072 6.0684,-5.07629 9.33573,-16.54175 13.07019,-23.77694 5.10555,-9.89007 13.01157,-21.06375 20.74281,-29.05749 28.21146,-29.17417 71.15595,-40.05612 110.5994,-33.84203 0,0 37.9262,10.38601 37.9262,10.38601 8.40234,-25.264848 35.35915,-49.333528 58.34833,-61.878438 z"
       id="Selection-5"
       inkscape:connector-curvature="0"
       style="color:#000000;fill:none;stroke:url(#radialGradient4351);stroke-width:25;stroke-linecap:butt;stroke-linejoin:miter;stroke-miterlimit:4;stroke-opacity:1;stroke-dasharray:none;stroke-dashoffset:0;marker:none;visibility:visible;display:inline;overflow:visible;enable-background:accumulate" />
  </g>
  <g
     inkscape:groupmode="layer"
     id="layer9"
     inkscape:label="nuvola3"
     style="display:inline"
     transform="translate(-10.389983,-16.688545)">
    <path
       d="m 383.82631,56.873242 c 58.34836,-31.79984 131.54644,-31.01216 186.71469,7.73117 42.03997,29.52426 63.0162,71.126618 69.14295,121.247848 0,0 0,48.98346 0,48.98346 0,0 38.27634,35.62164 38.27634,35.62164 24.38974,27.74465 27.19052,52.45517 26.78202,87.52252 -0.81697,68.70517 -57.21038,110.77432 -122.53165,110.86185 0,0 -417.19054,0 -417.19054,0 C 82.398758,468.72496 26.967913,410.98934 27.901602,328.80572 c 0.554379,-47.81647 25.352311,-91.0526 67.100505,-114.71287 24.652343,-13.9744 39.414273,-11.72799 48.137273,-19.05072 6.0684,-5.07629 9.33573,-16.54175 13.07019,-23.77694 5.10555,-9.89007 13.01157,-21.06375 20.74281,-29.05749 28.21146,-29.17417 71.15595,-40.05612 110.5994,-33.84203 0,0 37.9262,10.38601 37.9262,10.38601 8.40234,-25.264848 35.35915,-49.333528 58.34833,-61.878438 z"
       id="Selection-5-5"
       inkscape:connector-curvature="0"
       style="color:#000000;fill:#aedbf2;fill-opacity:1;stroke:url(#radialGradient4359);stroke-width:10;stroke-miterlimit:4;stroke-opacity:0.70980392;stroke-dasharray:none;marker:none;visibility:visible;display:inline;overflow:visible;enable-background:accumulate" />
    <path
       style="color:#000000;fill:url(#linearGradient3834);fill-opacity:1;stroke:none;stroke-width:10;marker:none;visibility:visible;display:inline;overflow:visible;enable-background:accumulate"
       d="m 34.75,322.8125 c 0.796616,0.29349 1.522553,0.62655 2.34375,0.90625 2.550843,0.86881 5.21748,1.66999 8,2.40625 2.78252,0.73626 5.681624,1.3955 8.6875,2 6.011752,1.209 12.457243,2.15713 19.3125,2.84375 6.855257,0.68662 14.117801,1.11076 21.75,1.28125 7.6322,0.17049 15.65742,0.0894 24,-0.25 8.34258,-0.3394 17.01361,-0.93821 26,-1.78125 8.98639,-0.84304 18.2801,-1.94081 27.84375,-3.28125 9.56365,-1.34044 19.39441,-2.91841 29.46875,-4.75 10.07434,-1.83159 20.38778,-3.90225 30.90625,-6.21875 10.51847,-2.3165 21.22897,-4.89233 32.125,-7.6875 10.89603,-2.79517 21.98046,-5.82616 33.1875,-9.09375 11.20704,-3.26759 22.54852,-6.76623 34,-10.5 11.45148,-3.73377 22.99565,-7.6813 34.625,-11.875 11.62935,-4.1937 23.35308,-8.63386 35.09375,-13.28125 11.74067,-4.64739 23.2295,-9.39147 34.46875,-14.25 11.23925,-4.85853 22.21584,-9.81295 32.90625,-14.84375 10.69041,-5.0308 21.09334,-10.1483 31.1875,-15.3125 10.09416,-5.1642 19.89326,-10.39752 29.34375,-15.65625 9.45049,-5.25873 18.5531,-10.56062 27.3125,-15.875 8.7594,-5.31438 17.16661,-10.63759 25.1875,-15.96875 8.02089,-5.33116 15.67128,-10.65968 22.90625,-15.96875 7.23497,-5.30907 14.06712,-10.59565 20.46875,-15.84375 0.81875,-0.67121 1.47657,-1.33014 2.28125,-2 C 616.73028,113.94197 599.84697,93.184995 576,76.4375 520.83175,37.69417 447.66086,36.91891 389.3125,68.71875 c -22.98918,12.54491 -49.97266,36.61015 -58.375,61.875 L 293.03125,120.1875 c -39.44345,-6.21409 -82.38229,4.66959 -110.59375,33.84375 -7.73124,7.99374 -15.64445,19.17243 -20.75,29.0625 -3.73446,7.23519 -6.9941,18.70496 -13.0625,23.78125 -8.723,7.32273 -23.5039,5.0881 -48.15625,19.0625 -36.491356,20.68102 -59.998643,56.29554 -65.71875,96.875 z"
       id="Selection-5-5-2"
       transform="translate(2.5393771,-11.831594)"
       inkscape:connector-curvature="0" />
  </g>
  <g
     inkscape:label="leo"
     inkscape:groupmode="layer"
     id="layer1"
     style="display:inline"
     transform="translate(-10.389983,-16.688545)">
    <path
       id="Selection-7"
       d="m 307.59058,222.34073 c 2.00993,-0.42835 6.23577,-0.80729 7.12543,-2.89961 1.15324,-2.68541 -2.90783,-9.06949 -4.42354,-11.27714 -5.10724,-7.43022 -10.28042,-14.46506 -10.86528,-23.88875 -0.88964,-14.53917 11.24419,-27.63681 22.99086,-34.40802 12.29861,-7.09249 26.22822,-10.6758 39.54003,-15.29703 11.76316,-4.08581 29.31727,-11.53252 40.36376,-17.23287 16.65623,-8.59171 39.23523,-28.468808 55.19126,-32.941768 6.64767,-1.86991 20.93973,-4.44001 23.94639,4.34117 1.62276,4.72008 -3.38557,10.59342 -3.99511,14.811028 -0.38725,2.73485 1.01322,3.84691 1.42502,7.41375 l 0,12.35624 c 0.0248,11.62314 -3.74804,18.71561 -8.8141,28.83126 -11.03003,21.9941 -36.12145,47.59628 -58.69221,57.6625 4.84366,5.98865 3.08082,5.18962 4.70362,11.5325 4.81895,18.88859 -5.9722,31.68967 -22.00238,40.10017 -6.84535,3.59153 -12.85873,4.39056 -19.77,9.32485 l 24.7125,-2.47127 c 14.96757,-2.92431 17.79301,-5.06605 34.59752,-5.98042 l 6.59,0 21.4175,1.27682 10.70875,2.12528 c 18.74033,2.81722 32.2498,5.07428 48.60131,15.82423 7.36426,4.83541 14.65444,12.0597 20.21477,18.88036 7.78451,9.5555 12.83406,21.02211 17.93305,32.12626 9.572,20.84913 17.44705,39.86128 31.4343,58.48626 6.16164,8.19632 14.44039,16.40911 23.50162,21.26924 l 14.00381,5.35437 c 9.30005,4.4153 17.66945,12.34802 19.76998,22.8014 -7.40549,0.33774 -12.77642,3.02318 -20.59381,0.88142 -7.52901,-2.05939 -12.14199,-7.94919 -17.30696,-13.23768 l -15.70068,-14.82749 c -15.70064,-15.78306 -26.1459,-29.85271 -36.75579,-49.42501 -13.97081,-25.77516 -21.21977,-52.47289 -48.85657,-67.66284 -7.47967,-4.1023 -12.79284,-4.50592 -20.59379,-6.47469 0.42834,9.30014 1.86992,18.73208 0,28.00751 -1.44157,7.12544 -6.53235,20.84089 -5.50255,27.18375 0.79069,4.86014 6.59819,16.61506 9.56366,20.58553 2.84192,3.81395 5.70862,5.10724 7.43024,9.89324 1.77929,5.22257 0.10698,10.3463 0,15.65125 l 3.33615,37.89251 -40.36374,0 c 0.41188,-5.10725 2.93258,-7.80093 8.23751,-8.12217 3.22086,-0.19771 6.73828,1.39212 8.29516,-2.6772 1.12852,-2.94902 -0.90614,-11.5984 -1.86993,-14.73689 -2.1829,-7.09248 -11.73841,-23.46864 -16.6974,-28.56764 -2.76781,-2.84194 -6.72179,-5.22259 -10.32159,-6.85361 -0.45306,1.49923 -1.1862,3.38561 -1.11206,4.94249 0.14828,3.14673 6.74652,13.78959 8.91297,16.47501 3.27029,4.06108 7.46319,7.33139 6.72183,13.18001 -0.42835,3.40207 -2.74312,6.97716 -4.47299,9.88499 -2.18293,3.6657 -7.19134,13.6825 -10.42866,15.65949 -1.40036,0.84846 -2.99023,0.78257 -4.56359,0.81552 l -19.76999,0 c 2.6854,-5.58504 9.42368,-16.09607 8.56699,-22.24127 -1.32625,-9.39897 -10.77465,-14.70392 -16.65624,-21.41749 -3.5586,-4.06932 -6.97715,-10.23921 -9.99208,-14.8275 -2.23237,-3.39386 -4.92603,-5.7992 -6.10397,-9.885 -0.82377,-2.84194 -0.52723,-11.40071 -0.52723,-14.82752 l -18.1225,4.81895 -24.71249,6.79594 -9.06127,1.75459 -10.70875,2.73485 -20.59376,3.31148 c -2.86665,0.42011 -7.29843,0.28007 -9.66256,1.94404 -3.72338,2.636 -3.34444,9.1601 -7.13371,14.06142 l -6.1287,6.59 -12.49626,13.85547 -17.15873,15.33823 c -10.49458,9.78617 -6.87007,11.97734 -16.61505,11.99381 l -46.13,0 c -3.50919,0 -14.80281,1.82049 -13.4189,-4.1352 0.41188,-1.7958 2.08409,-4.20115 3.13025,-5.7498 3.6245,-5.37085 6.70534,-8.37755 13.58364,-7.23253 6.67239,1.11206 8.27046,6.84537 15.64301,0.94732 7.31491,-5.8651 8.17986,-12.08443 12.43864,-19.25105 l 10.33806,-14.00376 10.18156,-17.29874 c -4.59653,-1.92759 -10.09094,-3.03964 -14.00376,-6.08752 -4.97545,-3.87986 -5.67563,-6.58177 -8.99534,-11.21125 -3.44328,-4.78598 -6.49116,-8.40224 -8.83885,-14.00374 -1.84519,-4.3906 -4.3494,-13.40241 -4.40707,-18.12252 l -0.82374,-15.65124 0.79079,-9.06124 0,-10.70876 c 0.1071,-6.3676 1.30154,-6.78771 2.50421,-12.35626 -5.85686,3.15496 -15.62655,13.55893 -20.68438,7.84209 -1.56512,-1.7793 -1.49099,-4.63771 -2.43829,-7.01834 -0.74962,-1.90287 -2.04291,-3.59154 -2.05114,-5.7333 -0.008,-3.14673 2.06761,-2.93255 2.10881,-8.27046 l 7.41374,2.47125 2.47126,-8.2375 c -2.51245,0.0248 -5.03312,-0.0823 -7.33963,1.07912 l -4.29996,2.91608 c -2.35593,0.84845 -4.14347,-1.43334 -5.73332,-2.83371 -7.42197,-6.57353 -4.68712,-4.45649 -7.99859,-11.83729 -1.50746,-3.35268 -5.1402,-5.93101 -4.83541,-9.90973 0.25536,-3.3197 2.94901,-4.82717 5.4944,-6.37581 5.37909,-3.25382 7.48788,-5.62622 14.00376,-5.98866 0.0412,-4.34117 0.20592,-7.47966 4.15169,-10.22275 2.78427,-1.92757 5.01664,-0.90612 8.80589,-5.44499 3.80573,-4.56356 1.7546,-7.74324 10.10742,-11.59839 4.33293,-1.99348 13.55069,-2.88314 18.12251,-1.82873 l 6.58999,2.33945 c 6.21932,1.77107 3.35267,0.53543 9.88501,3.36091 9.26321,1.80176 14.71957,10.34761 19.94299,15.9066 l 5.12372,4.45649 c 1.70517,1.98525 2.05114,4.15169 3.38561,6.32642 3.38563,5.5356 5.42028,6.97715 6.14519,14.00374 7.04306,-2.3312 7.1831,-5.54384 18.94626,-8.06451 z"
       style="fill:#ffae14;fill-opacity:1;stroke:#b30b00;stroke-width:4;stroke-miterlimit:4;stroke-opacity:1;stroke-dasharray:none;display:inline"
       inkscape:connector-curvature="0"
       sodipodi:nodetypes="cccccccccccccccsccccccccccccccccccccccccccccccccccccccccccccccccccccccsccccccccccccccccccccccccccccccccccccccc" />
  </g>
</svg>
